# xmcd CD database file
#
# Track frame offsets:
#	150
#	22027
#	45221
#	60908
#	80185
#	104372
#	132005
#	153779
#	176821
#	212913
#	240681
#	294602
#
# Disc length: 4592 seconds
#
# Revision: 0
# Processed by: cddbd v1.5.2PL0 Copyright (c) Steve Scherf et al.
# Submitted via: CDex 1.70beta2
#
DISCID=a011ee0c
DTITLE=Jaco Pastorius - The Essential Jaco Pastorius [CD2]
DYEAR=2007
DGENRE=Jazz
TTITLE0=River People [Live]
TTITLE1=Punk Jazz
TTITLE2=Dry Cleaner From Des Moines
TTITLE3=Dreamland
TTITLE4=4 A.M.
TTITLE5=Teen Town [Live]
TTITLE6=Slang (Bass Solo) [Live]
TTITLE7=Port Of Entry [Live]
TTITLE8=Soul Intro/The Chicken
TTITLE9=Three Views Of A Secret
TTITLE10=Liberty City
TTITLE11=John And Mary
EXTD=YEAR: 2007
EXTT0=
EXTT1=
EXTT2=
EXTT3=
EXTT4=
EXTT5=
EXTT6=
EXTT7=
EXTT8=
EXTT9=
EXTT10=
EXTT11=
PLAYORDER=
